<?xml version="1.0" standalone="no"?>
<!DOCTYPE svg PUBLIC "-//W3C//DTD SVG 20010904//EN"
 "http://www.w3.org/TR/2001/REC-SVG-20010904/DTD/svg10.dtd">
<svg version="1.0" xmlns="http://www.w3.org/2000/svg"
 width="1200.000000pt" height="1200.000000pt" viewBox="0 0 1200.000000 1200.000000"
 preserveAspectRatio="xMidYMid meet">

<g transform="translate(0.000000,1200.000000) scale(0.100000,-0.100000)"
fill="#000000" stroke="none">
<path d="M8467 6979 c-47 -72 -1827 -3659 -1827 -3681 0 -36 24 -54 57 -42 27
9 38 28 322 559 65 121 145 272 178 335 50 96 1170 2195 1395 2614 74 139 77
153 34 202 -19 23 -33 28 -84 32 -55 4 -61 2 -75 -19z"/>
<path d="M2501 6853 l-104 -4 6 -152 c5 -145 24 -299 50 -417 l12 -55 2436 -3
2435 -2 17 82 c28 140 47 313 47 439 l0 119 -2397 -2 c-1319 -1 -2445 -4
-2502 -5z"/>
<path d="M9373 6298 c-11 -13 -368 -507 -793 -1098 -426 -591 -822 -1140 -880
-1220 -58 -80 -125 -172 -149 -205 -23 -33 -158 -222 -300 -420 -142 -198
-261 -370 -265 -382 -10 -32 25 -65 56 -54 14 4 144 166 318 394 1452 1900
2192 2871 2197 2885 9 22 -29 93 -58 108 -43 22 -102 18 -126 -8z"/>
<path d="M2580 5867 c0 -27 162 -337 228 -435 198 -296 420 -519 708 -710 72
-48 145 -95 163 -104 l31 -17 0 -271 0 -270 1190 0 1190 0 0 269 0 269 102 62
c427 258 787 662 987 1106 23 51 41 97 41 103 0 8 -617 11 -2320 11 -1883 0
-2320 -2 -2320 -13z"/>
</g>
</svg>
